<?xml version="1.0" encoding="UTF-8"?>
<!DOCTYPE svg PUBLIC "-//W3C//DTD SVG 1.1//EN" "http://www.w3.org/Graphics/SVG/1.1/DTD/svg11.dtd">
<!-- Creator: CorelDRAW -->
<svg xmlns="http://www.w3.org/2000/svg" xml:space="preserve" width="8.66666in" height="8.66666in" style="shape-rendering:geometricPrecision; text-rendering:geometricPrecision; image-rendering:optimizeQuality; fill-rule:evenodd; clip-rule:evenodd"
viewBox="0 0 8.66666 8.66666"
 xmlns:xlink="http://www.w3.org/1999/xlink">
 <defs>
  <style type="text/css">
   <![CDATA[
    .fil0 {fill:black}
    .fil1 {fill:#FFFFFE;fill-rule:nonzero}
   ]]>
  </style>
 </defs>
 <g id="Layer_x0020_1">
  <metadata id="CorelCorpID_0Corel-Layer"/>
  <circle class="fil0" cx="4.33333" cy="4.33333" r="4.33333"/>
  <g id="_325656408">
   <path id="_325657296" class="fil1" d="M3.56181 2.24572l3.1256 0c0.0567008,0 0.108193,0.0231496 0.145476,0.060437 0.0372874,0.0372835 0.060437,0.0887756 0.060437,0.145476l0 2.34256c0,0.0566969 -0.0231496,0.108189 -0.060437,0.145472 -0.0372835,0.0372874 -0.0887756,0.060437 -0.145476,0.060437l-0.0412362 0 0 0.652236c0,0.0360276 -0.0292087,0.0652362 -0.0652402,0.0652362 -0.0222874,0 -0.0419685,-0.0111811 -0.0537323,-0.0282402l-0.580791 -0.689232 -0.570429 0 0 -1.8451c0,-0.0720551 -0.028622,-0.140681 -0.0795394,-0.191602 -0.0509213,-0.0509213 -0.119547,-0.0795433 -0.191606,-0.0795433l-1.74894 0 0 -0.432217c0,-0.0567008 0.0231457,-0.108193 0.0604331,-0.145476 0.0372835,-0.0372874 0.0887756,-0.060437 0.145476,-0.060437z"/>
   <path id="_325656672" class="fil1" d="M1.97924 2.94909l3.1256 0c0.0567008,0 0.108193,0.0231457 0.145476,0.0604331 0.0372874,0.0372835 0.060437,0.0887795 0.060437,0.145476l0 2.34256c0,0.0566969 -0.0231496,0.108193 -0.060437,0.145476 -0.0372835,0.0372874 -0.0887756,0.0604331 -0.145476,0.0604331l-2.3846 0 -0.580791 0.689236c-0.0117638,0.0170551 -0.0314449,0.0282402 -0.0537323,0.0282402 -0.0360276,0 -0.0652402,-0.0292126 -0.0652402,-0.0652402l0 -0.652236 -0.0412362 0c-0.0567008,0 -0.108193,-0.0231457 -0.145476,-0.0604331 -0.0372874,-0.0372835 -0.0604331,-0.0887795 -0.0604331,-0.145476l0 -2.34256c0,-0.0566969 0.0231457,-0.108193 0.0604331,-0.145476 0.0372835,-0.0372874 0.0887756,-0.0604331 0.145476,-0.0604331zm1.41169 0.967323c-0.0360315,0 -0.0652402,0.0292087 -0.0652402,0.0652362 0,0.0360315 0.0292087,0.0652402 0.0652402,0.0652402l0.302228 0c0.0360276,0 0.0652362,-0.0292087 0.0652362,-0.0652402 0,-0.0360276 -0.0292087,-0.0652362 -0.0652362,-0.0652362l-0.302228 0zm-0.947909 0c-0.0360276,0 -0.0652362,0.0292087 -0.0652362,0.0652362 0,0.0360315 0.0292087,0.0652402 0.0652362,0.0652402l0.302232 0c0.0360315,0 0.0652402,-0.0292087 0.0652402,-0.0652402 0,-0.0360276 -0.0292087,-0.0652362 -0.0652402,-0.0652362l-0.302232 0zm1.89581 0c-0.0360276,0 -0.0652362,0.0292087 -0.0652362,0.0652362 0,0.0360315 0.0292087,0.0652402 0.0652362,0.0652402l0.302228 0c0.0360276,0 0.0652362,-0.0292087 0.0652362,-0.0652402 0,-0.0360276 -0.0292087,-0.0652362 -0.0652362,-0.0652362l-0.302228 0z"/>
  </g>
 </g>
</svg>
